<svg xmlns="http://www.w3.org/2000/svg" viewBox="0 0 320 320"><ellipse cx="160" cy="288" rx="89" ry="12" fill="#d9d4eb"/><circle cx="85" cy="92" r="32" fill="#363849"/><circle cx="235" cy="92" r="32" fill="#363849"/><ellipse cx="160" cy="174" rx="99" ry="91" fill="#fffdf8"/><ellipse cx="117" cy="157" rx="28" ry="35" fill="#363849" transform="rotate(25 117 157)"/><ellipse cx="203" cy="157" rx="28" ry="35" fill="#363849" transform="rotate(-25 203 157)"/><ellipse cx="160" cy="204" rx="48" ry="34" fill="#fff0d9"/><circle cx="120" cy="161" r="9" fill="#242639"/><circle cx="200" cy="161" r="9" fill="#242639"/><circle cx="122" cy="158" r="3" fill="white"/><circle cx="202" cy="158" r="3" fill="white"/><path d="M148 197Q160 190 172 197L160 211Z" fill="#523e47"/><path d="M160 211v9m0 0q-14 14-26 0m26 0q14 14 26 0" fill="none" stroke="#523e47" stroke-width="4" stroke-linecap="round"/></svg>